<?xml version="1.0" standalone="no"?>
<!DOCTYPE svg PUBLIC "-//W3C//DTD SVG 1.1//EN" "http://www.w3.org/Graphics/SVG/1.1/DTD/svg11.dtd">
<svg width="800" height="600" version="1.1" xmlns="http://www.w3.org/2000/svg">
<rect width="800" height="600" x="0" y="0" style="fill:rgb(238,238,238);stroke:none"/>
<rect width="800" height="600" x="0" y="0" style="fill:rgb(255,255,255);stroke:none"/>
<text x="2" y="566" fill="rgb(0,0,0)" font-family="Arial" font-size="12">0</text>
<text x="2" y="513" fill="rgb(0,0,0)" font-family="Arial" font-size="12">2000000</text>
<text x="2" y="460" fill="rgb(0,0,0)" font-family="Arial" font-size="12">4000000</text>
<text x="2" y="407" fill="rgb(0,0,0)" font-family="Arial" font-size="12">6000000</text>
<text x="2" y="354" fill="rgb(0,0,0)" font-family="Arial" font-size="12">8000000</text>
<text x="2" y="301" fill="rgb(0,0,0)" font-family="Arial" font-size="12">1.0E7</text>
<text x="2" y="248" fill="rgb(0,0,0)" font-family="Arial" font-size="12">1.2E7</text>
<text x="2" y="195" fill="rgb(0,0,0)" font-family="Arial" font-size="12">1.4E7</text>
<text x="2" y="141" fill="rgb(0,0,0)" font-family="Arial" font-size="12">1.6E7</text>
<text x="2" y="88" fill="rgb(0,0,0)" font-family="Arial" font-size="12">1.8E7</text>
<text x="286" y="30" fill="rgb(0,0,0)" font-family="Arial" font-size="12">Quality score distribution over all sequences</text>
<line x1="61" y1="560" x2="790" y2="560" stroke="rgb(0,0,0)" stroke-width="1"/>
<line x1="61" y1="560" x2="61" y2="40" stroke="rgb(0,0,0)" stroke-width="1"/>
<text x="281" y="595" fill="rgb(0,0,0)" font-family="Arial" font-size="12">Mean Sequence Quality (Phred Score)</text>
<text x="81" y="575" fill="rgb(0,0,0)" font-family="Arial" font-size="12">23</text>
<rect width="56" height="520" x="117" y="40" style="fill:rgb(230,230,230);stroke:none"/>
<text x="137" y="575" fill="rgb(0,0,0)" font-family="Arial" font-size="12">24</text>
<text x="193" y="575" fill="rgb(0,0,0)" font-family="Arial" font-size="12">25</text>
<rect width="56" height="520" x="229" y="40" style="fill:rgb(230,230,230);stroke:none"/>
<text x="249" y="575" fill="rgb(0,0,0)" font-family="Arial" font-size="12">26</text>
<text x="305" y="575" fill="rgb(0,0,0)" font-family="Arial" font-size="12">27</text>
<rect width="56" height="520" x="341" y="40" style="fill:rgb(230,230,230);stroke:none"/>
<text x="361" y="575" fill="rgb(0,0,0)" font-family="Arial" font-size="12">28</text>
<text x="417" y="575" fill="rgb(0,0,0)" font-family="Arial" font-size="12">29</text>
<rect width="56" height="520" x="453" y="40" style="fill:rgb(230,230,230);stroke:none"/>
<text x="473" y="575" fill="rgb(0,0,0)" font-family="Arial" font-size="12">30</text>
<text x="529" y="575" fill="rgb(0,0,0)" font-family="Arial" font-size="12">31</text>
<rect width="56" height="520" x="565" y="40" style="fill:rgb(230,230,230);stroke:none"/>
<text x="585" y="575" fill="rgb(0,0,0)" font-family="Arial" font-size="12">32</text>
<text x="641" y="575" fill="rgb(0,0,0)" font-family="Arial" font-size="12">33</text>
<rect width="56" height="520" x="677" y="40" style="fill:rgb(230,230,230);stroke:none"/>
<text x="697" y="575" fill="rgb(0,0,0)" font-family="Arial" font-size="12">34</text>
<text x="753" y="575" fill="rgb(0,0,0)" font-family="Arial" font-size="12">35</text>
<line x1="61" y1="560" x2="790" y2="560" stroke="rgb(180,180,180)" stroke-width="1"/>
<line x1="61" y1="507" x2="790" y2="507" stroke="rgb(180,180,180)" stroke-width="1"/>
<line x1="61" y1="454" x2="790" y2="454" stroke="rgb(180,180,180)" stroke-width="1"/>
<line x1="61" y1="401" x2="790" y2="401" stroke="rgb(180,180,180)" stroke-width="1"/>
<line x1="61" y1="348" x2="790" y2="348" stroke="rgb(180,180,180)" stroke-width="1"/>
<line x1="61" y1="295" x2="790" y2="295" stroke="rgb(180,180,180)" stroke-width="1"/>
<line x1="61" y1="242" x2="790" y2="242" stroke="rgb(180,180,180)" stroke-width="1"/>
<line x1="61" y1="189" x2="790" y2="189" stroke="rgb(180,180,180)" stroke-width="1"/>
<line x1="61" y1="135" x2="790" y2="135" stroke="rgb(180,180,180)" stroke-width="1"/>
<line x1="61" y1="82" x2="790" y2="82" stroke="rgb(180,180,180)" stroke-width="1"/>
<line x1="89" y1="560" x2="145" y2="560" stroke="rgb(136,34,85)" stroke-width="1"/>
<line x1="145" y1="560" x2="201" y2="560" stroke="rgb(136,34,85)" stroke-width="1"/>
<line x1="201" y1="560" x2="257" y2="560" stroke="rgb(136,34,85)" stroke-width="1"/>
<line x1="257" y1="560" x2="313" y2="559" stroke="rgb(136,34,85)" stroke-width="1"/>
<line x1="313" y1="559" x2="369" y2="557" stroke="rgb(136,34,85)" stroke-width="1"/>
<line x1="369" y1="557" x2="425" y2="555" stroke="rgb(136,34,85)" stroke-width="1"/>
<line x1="425" y1="555" x2="481" y2="552" stroke="rgb(136,34,85)" stroke-width="1"/>
<line x1="481" y1="552" x2="537" y2="548" stroke="rgb(136,34,85)" stroke-width="1"/>
<line x1="537" y1="548" x2="593" y2="543" stroke="rgb(136,34,85)" stroke-width="1"/>
<line x1="593" y1="543" x2="649" y2="533" stroke="rgb(136,34,85)" stroke-width="1"/>
<line x1="649" y1="533" x2="705" y2="498" stroke="rgb(136,34,85)" stroke-width="1"/>
<line x1="705" y1="498" x2="761" y2="40" stroke="rgb(136,34,85)" stroke-width="1"/>
<rect width="183" height="23" x="607" y="40" style="fill:rgb(255,255,255);stroke:none"/>
<rect width="183" height="23" x="607" y="40" rx="0" ry="0" style="fill:none;stroke-width:1;stroke:rgb(192,192,192)"/>
<text x="610" y="55" fill="rgb(136,34,85)" font-family="Arial" font-size="12" font-weight="bold">Average Quality per read</text>
</svg>
