<?xml version="1.0" standalone="no"?>
<!DOCTYPE svg PUBLIC "-//W3C//DTD SVG 1.1//EN" "http://www.w3.org/Graphics/SVG/1.1/DTD/svg11.dtd">
<svg width="800" height="600" version="1.1" xmlns="http://www.w3.org/2000/svg">
<rect width="800" height="600" x="0" y="0" style="fill:rgb(238,238,238);stroke:none"/>
<rect width="800" height="600" x="0" y="0" style="fill:rgb(255,255,255);stroke:none"/>
<text x="2" y="566" fill="rgb(0,0,0)" font-family="Arial" font-size="12">0</text>
<text x="2" y="478" fill="rgb(0,0,0)" font-family="Arial" font-size="12">2000000</text>
<text x="2" y="389" fill="rgb(0,0,0)" font-family="Arial" font-size="12">4000000</text>
<text x="2" y="300" fill="rgb(0,0,0)" font-family="Arial" font-size="12">6000000</text>
<text x="2" y="211" fill="rgb(0,0,0)" font-family="Arial" font-size="12">8000000</text>
<text x="2" y="122" fill="rgb(0,0,0)" font-family="Arial" font-size="12">1.0E7</text>
<text x="262" y="30" fill="rgb(0,0,0)" font-family="Arial" font-size="12">Distribution of sequence lengths over all sequences</text>
<line x1="61" y1="560" x2="790" y2="560" stroke="rgb(0,0,0)" stroke-width="1"/>
<line x1="61" y1="560" x2="61" y2="40" stroke="rgb(0,0,0)" stroke-width="1"/>
<text x="330" y="595" fill="rgb(0,0,0)" font-family="Arial" font-size="12">Sequence Length (bp)</text>
<text x="54" y="575" fill="rgb(0,0,0)" font-family="Arial" font-size="12">14-15</text>
<rect width="22" height="520" x="83" y="40" style="fill:rgb(230,230,230);stroke:none"/>
<text x="98" y="575" fill="rgb(0,0,0)" font-family="Arial" font-size="12">18-19</text>
<rect width="22" height="520" x="127" y="40" style="fill:rgb(230,230,230);stroke:none"/>
<text x="142" y="575" fill="rgb(0,0,0)" font-family="Arial" font-size="12">22-23</text>
<rect width="22" height="520" x="171" y="40" style="fill:rgb(230,230,230);stroke:none"/>
<text x="186" y="575" fill="rgb(0,0,0)" font-family="Arial" font-size="12">26-27</text>
<rect width="22" height="520" x="215" y="40" style="fill:rgb(230,230,230);stroke:none"/>
<text x="230" y="575" fill="rgb(0,0,0)" font-family="Arial" font-size="12">30-31</text>
<rect width="22" height="520" x="259" y="40" style="fill:rgb(230,230,230);stroke:none"/>
<text x="274" y="575" fill="rgb(0,0,0)" font-family="Arial" font-size="12">34-35</text>
<rect width="22" height="520" x="303" y="40" style="fill:rgb(230,230,230);stroke:none"/>
<text x="318" y="575" fill="rgb(0,0,0)" font-family="Arial" font-size="12">38-39</text>
<rect width="22" height="520" x="347" y="40" style="fill:rgb(230,230,230);stroke:none"/>
<text x="362" y="575" fill="rgb(0,0,0)" font-family="Arial" font-size="12">42-43</text>
<rect width="22" height="520" x="391" y="40" style="fill:rgb(230,230,230);stroke:none"/>
<text x="406" y="575" fill="rgb(0,0,0)" font-family="Arial" font-size="12">46-47</text>
<rect width="22" height="520" x="435" y="40" style="fill:rgb(230,230,230);stroke:none"/>
<text x="450" y="575" fill="rgb(0,0,0)" font-family="Arial" font-size="12">50-51</text>
<rect width="22" height="520" x="479" y="40" style="fill:rgb(230,230,230);stroke:none"/>
<text x="494" y="575" fill="rgb(0,0,0)" font-family="Arial" font-size="12">54-55</text>
<rect width="22" height="520" x="523" y="40" style="fill:rgb(230,230,230);stroke:none"/>
<text x="538" y="575" fill="rgb(0,0,0)" font-family="Arial" font-size="12">58-59</text>
<rect width="22" height="520" x="567" y="40" style="fill:rgb(230,230,230);stroke:none"/>
<text x="582" y="575" fill="rgb(0,0,0)" font-family="Arial" font-size="12">62-63</text>
<rect width="22" height="520" x="611" y="40" style="fill:rgb(230,230,230);stroke:none"/>
<text x="626" y="575" fill="rgb(0,0,0)" font-family="Arial" font-size="12">66-67</text>
<rect width="22" height="520" x="655" y="40" style="fill:rgb(230,230,230);stroke:none"/>
<text x="670" y="575" fill="rgb(0,0,0)" font-family="Arial" font-size="12">70-71</text>
<rect width="22" height="520" x="699" y="40" style="fill:rgb(230,230,230);stroke:none"/>
<text x="714" y="575" fill="rgb(0,0,0)" font-family="Arial" font-size="12">74-75</text>
<rect width="22" height="520" x="743" y="40" style="fill:rgb(230,230,230);stroke:none"/>
<line x1="61" y1="560" x2="790" y2="560" stroke="rgb(180,180,180)" stroke-width="1"/>
<line x1="61" y1="472" x2="790" y2="472" stroke="rgb(180,180,180)" stroke-width="1"/>
<line x1="61" y1="383" x2="790" y2="383" stroke="rgb(180,180,180)" stroke-width="1"/>
<line x1="61" y1="294" x2="790" y2="294" stroke="rgb(180,180,180)" stroke-width="1"/>
<line x1="61" y1="205" x2="790" y2="205" stroke="rgb(180,180,180)" stroke-width="1"/>
<line x1="61" y1="116" x2="790" y2="116" stroke="rgb(180,180,180)" stroke-width="1"/>
<line x1="72" y1="560" x2="94" y2="560" stroke="rgb(136,34,85)" stroke-width="1"/>
<line x1="94" y1="560" x2="116" y2="560" stroke="rgb(136,34,85)" stroke-width="1"/>
<line x1="116" y1="560" x2="138" y2="560" stroke="rgb(136,34,85)" stroke-width="1"/>
<line x1="138" y1="560" x2="160" y2="560" stroke="rgb(136,34,85)" stroke-width="1"/>
<line x1="160" y1="560" x2="182" y2="560" stroke="rgb(136,34,85)" stroke-width="1"/>
<line x1="182" y1="560" x2="204" y2="560" stroke="rgb(136,34,85)" stroke-width="1"/>
<line x1="204" y1="560" x2="226" y2="560" stroke="rgb(136,34,85)" stroke-width="1"/>
<line x1="226" y1="560" x2="248" y2="560" stroke="rgb(136,34,85)" stroke-width="1"/>
<line x1="248" y1="560" x2="270" y2="560" stroke="rgb(136,34,85)" stroke-width="1"/>
<line x1="270" y1="560" x2="292" y2="560" stroke="rgb(136,34,85)" stroke-width="1"/>
<line x1="292" y1="560" x2="314" y2="560" stroke="rgb(136,34,85)" stroke-width="1"/>
<line x1="314" y1="560" x2="336" y2="560" stroke="rgb(136,34,85)" stroke-width="1"/>
<line x1="336" y1="560" x2="358" y2="560" stroke="rgb(136,34,85)" stroke-width="1"/>
<line x1="358" y1="560" x2="380" y2="560" stroke="rgb(136,34,85)" stroke-width="1"/>
<line x1="380" y1="560" x2="402" y2="560" stroke="rgb(136,34,85)" stroke-width="1"/>
<line x1="402" y1="560" x2="424" y2="560" stroke="rgb(136,34,85)" stroke-width="1"/>
<line x1="424" y1="560" x2="446" y2="560" stroke="rgb(136,34,85)" stroke-width="1"/>
<line x1="446" y1="560" x2="468" y2="560" stroke="rgb(136,34,85)" stroke-width="1"/>
<line x1="468" y1="560" x2="490" y2="560" stroke="rgb(136,34,85)" stroke-width="1"/>
<line x1="490" y1="560" x2="512" y2="560" stroke="rgb(136,34,85)" stroke-width="1"/>
<line x1="512" y1="560" x2="534" y2="560" stroke="rgb(136,34,85)" stroke-width="1"/>
<line x1="534" y1="560" x2="556" y2="560" stroke="rgb(136,34,85)" stroke-width="1"/>
<line x1="556" y1="560" x2="578" y2="560" stroke="rgb(136,34,85)" stroke-width="1"/>
<line x1="578" y1="560" x2="600" y2="560" stroke="rgb(136,34,85)" stroke-width="1"/>
<line x1="600" y1="560" x2="622" y2="560" stroke="rgb(136,34,85)" stroke-width="1"/>
<line x1="622" y1="560" x2="644" y2="559" stroke="rgb(136,34,85)" stroke-width="1"/>
<line x1="644" y1="559" x2="666" y2="558" stroke="rgb(136,34,85)" stroke-width="1"/>
<line x1="666" y1="558" x2="688" y2="550" stroke="rgb(136,34,85)" stroke-width="1"/>
<line x1="688" y1="550" x2="710" y2="487" stroke="rgb(136,34,85)" stroke-width="1"/>
<line x1="710" y1="487" x2="732" y2="68" stroke="rgb(136,34,85)" stroke-width="1"/>
<line x1="732" y1="68" x2="754" y2="40" stroke="rgb(136,34,85)" stroke-width="1"/>
<rect width="130" height="23" x="660" y="40" style="fill:rgb(255,255,255);stroke:none"/>
<rect width="130" height="23" x="660" y="40" rx="0" ry="0" style="fill:none;stroke-width:1;stroke:rgb(192,192,192)"/>
<text x="663" y="55" fill="rgb(136,34,85)" font-family="Arial" font-size="12" font-weight="bold">Sequence Length</text>
</svg>
